<?xml version="1.0"?>
<svg xmlns="http://www.w3.org/2000/svg" xmlns:xlink="http://www.w3.org/1999/xlink" version="1.1" viewBox="0 0 192 192" width="48px" height="48px"><g fill="none" fill-rule="nonzero" stroke="none" stroke-width="1" stroke-linecap="butt" stroke-linejoin="miter" stroke-miterlimit="10" stroke-dasharray="" stroke-dashoffset="0" font-family="none" font-weight="none" font-size="none" text-anchor="none" style="mix-blend-mode: normal"><path d="M0,192v-192h192v192z" fill="none"/><g fill="#fefff5"><path d="M131.224,72h-19.224v-16c0,-8.256 0.672,-13.456 12.504,-13.456h6.944c4.416,0 8,-3.584 8,-8v-10.032c0,-4.184 -3.208,-7.76 -7.384,-8.04c-4.832,-0.328 -9.672,-0.48 -14.52,-0.472c-21.704,0 -37.544,13.256 -37.544,37.592v18.408h-16c-4.416,0 -8,3.584 -8,8v16c0,4.416 3.584,8 8,8l16,-0.008v64.008c0,4.416 3.584,8 8,8h16c4.416,0 8,-3.584 8,-8v-64.024l17.392,-0.008c4.064,0 7.48,-3.048 7.944,-7.088l1.832,-15.968c0.552,-4.744 -3.16,-8.912 -7.944,-8.912z"/></g></g></svg>
